<svg width="2407" height="2195" viewBox="0 0 2407 2195" fill="none" xmlns="http://www.w3.org/2000/svg">
<path d="M1050.66 260L1033 1447.01" stroke="#F499E6" stroke-width="30" stroke-linecap="round"/>
<path fill-rule="evenodd" clip-rule="evenodd" d="M794.448 93.9639C733.277 52.6129 642.761 42.2294 554.317 73.4334C422.146 120.065 344.652 241.912 381.23 345.588C401.924 404.244 454.698 444.516 520.564 459.987C509.669 442.797 500.483 424.028 493.372 403.873C446.601 271.305 507.352 129.026 629.063 86.0849C684.397 66.5627 742.804 70.9332 794.448 93.9639Z" fill="#F499E6"/>
<path fill-rule="evenodd" clip-rule="evenodd" d="M503.893 133.93C456.287 97.0312 364.485 135.769 298.848 220.453C233.21 305.137 218.592 403.7 266.198 440.598C283.387 453.921 306.337 457.384 331.737 452.383C330.272 451.357 328.826 450.292 327.401 449.188C266.528 402.006 266.18 300.54 326.623 222.557C378.807 155.23 459.244 127.419 519.426 151.44C515.3 144.658 510.131 138.765 503.893 133.93Z" fill="#F499E6"/>
<path fill-rule="evenodd" clip-rule="evenodd" d="M1062.66 309.682C1088.29 218.313 1007.55 115.759 882.303 80.6217C757.062 45.4844 634.753 91.0694 609.119 182.439C599.863 215.428 604.476 249.876 620.044 282.083C620.703 279.344 621.416 276.607 622.183 273.871C654.961 157.039 775.027 88.5573 890.358 120.914C989.93 148.849 1053.42 242.816 1047.81 343.16C1054.28 332.839 1059.3 321.653 1062.66 309.682Z" fill="#F499E6"/>
<path fill-rule="evenodd" clip-rule="evenodd" d="M305.273 441.144C246.805 426.676 177.602 503.069 150.703 611.773C123.805 720.477 149.398 820.327 207.866 834.795C228.977 840.019 251.487 833.397 272.9 817.687C271.144 817.346 269.39 816.959 267.64 816.526C192.877 798.026 152.35 701.881 177.119 601.78C198.504 515.356 261.57 454.239 326.518 451.056C320.03 446.401 312.934 443.039 305.273 441.144Z" fill="#F499E6"/>
<path fill-rule="evenodd" clip-rule="evenodd" d="M305.273 441.144C246.805 426.676 177.602 503.069 150.703 611.773C123.805 720.477 149.398 820.327 207.866 834.795C228.977 840.019 251.487 833.397 272.9 817.687C271.144 817.346 269.39 816.959 267.64 816.526C192.877 798.026 152.35 701.881 177.119 601.78C198.504 515.356 261.57 454.239 326.518 451.056C320.03 446.401 312.934 443.039 305.273 441.144Z" fill="#F499E6"/>
<path fill-rule="evenodd" clip-rule="evenodd" d="M218.087 824.948C153.037 841.608 93.709 934.601 77.9336 1053.11C61.9141 1173.45 89.5272 1313.16 148.025 1352.63C140.086 1355.65 132.116 1356.73 124.229 1355.68C64.5243 1347.73 32.2093 1220.46 52.0516 1071.4C71.894 922.341 136.38 807.949 196.085 815.897C203.908 816.939 211.26 820.029 218.087 824.948Z" fill="#F499E6"/>
<path fill-rule="evenodd" clip-rule="evenodd" d="M63.155 1210.05C95.0448 1296.82 186.156 1369.31 303.138 1390.08C414.881 1409.92 544.918 1383.96 620.939 1323.57C569.892 1375.34 483.381 1417.14 381.221 1433.2C206.72 1460.62 52.6378 1402.55 37.0698 1303.5C32.0955 1271.85 41.8643 1239.84 63.155 1210.05Z" fill="#F499E6"/>
<path fill-rule="evenodd" clip-rule="evenodd" d="M530.204 652.611C613.82 692.039 729.601 679.733 827.507 612.424C921.029 548.13 995.436 438.369 1007.21 342C1007.18 414.706 974.891 505.197 913.388 588.334C808.334 730.343 657.822 797.121 577.212 737.488C551.455 718.433 535.951 688.779 530.204 652.611Z" fill="#F499E6"/>
<path fill-rule="evenodd" clip-rule="evenodd" d="M202.654 846.498C270.413 957.566 414.784 1031.19 579.859 1025.25C737.542 1019.58 907.275 944.834 993.818 838.33C938.856 925.44 832.817 1009.24 698.252 1061.93C468.399 1151.93 242.354 1117.08 193.366 984.09C177.714 941.597 182.032 894.227 202.654 846.498Z" fill="#F499E6"/>
<path fill-rule="evenodd" clip-rule="evenodd" d="M65.396 1359.48C49.1611 1606.93 256.479 1822 528.453 1839.84C800.427 1857.69 1032.27 1662.45 1048.5 1415C1055.41 1309.66 1027.44 1349.79 972.053 1429.25C914.549 1511.75 827.492 1636.64 719.239 1685.15C651.386 1726.15 575.102 1747 495.746 1741.8C289.045 1728.24 126.107 1542.08 87.1594 1299.57C75.2346 1305.15 67.7413 1323.73 65.396 1359.48Z" fill="#F499E6"/>
<rect x="1220" y="76" width="1178" height="1723" rx="35" fill="#C6C6C6" stroke="#505050" stroke-width="18"/>
<circle cx="1427" cy="490" r="75" fill="white"/>
<circle cx="1427" cy="490" r="75" fill="#505050"/>
<circle cx="1427" cy="899" r="75" fill="#505050"/>
<circle cx="1427" cy="1308" r="75" fill="white"/>
<circle cx="1427" cy="1308" r="75" fill="#505050"/>
<rect x="1225" y="1656" width="1168" height="140" rx="34" stroke="#505050" stroke-width="28"/>
<rect x="1596" y="516" width="678" height="408" rx="34" stroke="#505050" stroke-width="28"/>
<path d="M1326 1724H1427.5V1922.6L1326 2156.47V1724Z" fill="#C6C6C6" stroke="#505050" stroke-width="16"/>
<path d="M1545 1724H1443.5V1922.6L1545 2156.47V1724Z" fill="#C6C6C6" stroke="#505050" stroke-width="16"/>
<rect x="1225" y="1656" width="1168" height="62" rx="31" stroke="#505050" stroke-width="28"/>
</svg>
